<svg width="16" height="15" viewBox="0 0 16 15" fill="none" xmlns="http://www.w3.org/2000/svg">
<path d="M7.2558 0.927052C7.55515 0.00574112 8.85856 0.00574064 9.15791 0.927051L10.2739 4.36178C10.4078 4.7738 10.7917 5.05276 11.225 5.05276H14.8365C15.8052 5.05276 16.208 6.29238 15.4242 6.86178L12.5025 8.98456C12.152 9.2392 12.0053 9.69057 12.1392 10.1026L13.2552 13.5373C13.5546 14.4586 12.5001 15.2248 11.7164 14.6554L8.79464 12.5326C8.44415 12.2779 7.96955 12.2779 7.61907 12.5326L4.69731 14.6554C3.9136 15.2248 2.85912 14.4586 3.15847 13.5373L4.27448 10.1026C4.40836 9.69057 4.2617 9.2392 3.91121 8.98456L0.989458 6.86178C0.205745 6.29238 0.60852 5.05276 1.57724 5.05276H5.18873C5.62196 5.05276 6.00591 4.7738 6.13979 4.36178L7.2558 0.927052Z" fill="#FFCB7D"/>
</svg>
