<svg width="33" height="33" viewBox="0 0 33 33" fill="none" xmlns="http://www.w3.org/2000/svg">
<g clip-path="url(#clip0_488_9777)">
<path d="M32.1424 7.47405C31.0291 7.96738 29.8331 8.30071 28.5757 8.45138C29.8731 7.6751 30.8437 6.45333 31.3064 5.01405C30.0875 5.73803 28.7535 6.24764 27.3624 6.52071C26.4269 5.52187 25.1878 4.85981 23.8375 4.63734C22.4872 4.41487 21.1012 4.64443 19.8947 5.29038C18.6882 5.93633 17.7288 6.96253 17.1653 8.20965C16.6018 9.45677 16.4658 10.855 16.7784 12.1874C14.3087 12.0634 11.8926 11.4214 9.68697 10.3033C7.48136 9.18506 5.53553 7.61559 3.97574 5.69671C3.4424 6.61671 3.13574 7.68338 3.13574 8.81938C3.13514 9.84204 3.38698 10.849 3.86891 11.751C4.35084 12.653 5.04795 13.4221 5.8984 13.99C4.91211 13.9587 3.94757 13.6922 3.08507 13.2127V13.2927C3.08497 14.727 3.58111 16.1172 4.48931 17.2274C5.39751 18.3375 6.66183 19.0993 8.06774 19.3834C7.15278 19.631 6.19352 19.6675 5.2624 19.49C5.65907 20.7242 6.43173 21.8034 7.47223 22.5766C8.51272 23.3498 9.76896 23.7783 11.0651 23.802C8.86485 25.5293 6.14759 26.4662 3.3504 26.462C2.85491 26.4622 2.35984 26.4332 1.86774 26.3754C4.70704 28.2009 8.01219 29.1698 11.3877 29.166C22.8144 29.166 29.0611 19.702 29.0611 11.494C29.0611 11.2274 29.0544 10.958 29.0424 10.6914C30.2575 9.81268 31.3063 8.72457 32.1397 7.47805L32.1424 7.47405Z" fill="#1C9236"/>
</g>
<defs>
<clipPath id="clip0_488_9777">
<rect width="32" height="32" fill="white" transform="translate(0.618408 0.890625)"/>
</clipPath>
</defs>
</svg>
