<!-- <svg width="32" height="29" viewBox="0 0 24 22" fill="black" xmlns="http://www.w3.org/2000/svg">
<path d="M23.0667 18.4732L13.8067 1.43317C13.6224 1.09357 13.3498 0.810016 13.0177 0.612429C12.6857 0.414842 12.3064 0.310547 11.92 0.310547C11.5336 0.310547 11.1544 0.414842 10.8223 0.612429C10.4903 0.810016 10.2177 1.09357 10.0334 1.43317L0.780044 18.4732C0.59706 18.8008 0.503166 19.1707 0.507727 19.546C0.512287 19.9212 0.615143 20.2887 0.806036 20.6118C0.996929 20.9349 1.26919 21.2023 1.59567 21.3874C1.92215 21.5724 2.29144 21.6687 2.66671 21.6665H21.18C21.5515 21.6661 21.9165 21.5694 22.2394 21.3857C22.5622 21.202 22.8319 20.9377 23.022 20.6186C23.2121 20.2995 23.3162 19.9365 23.324 19.5651C23.3319 19.1937 23.2432 18.8267 23.0667 18.4998V18.4732ZM11.0667 5.6665C11.0667 5.41897 11.165 5.18157 11.3401 5.00654C11.5151 4.8315 11.7525 4.73317 12 4.73317C12.2476 4.73317 12.485 4.8315 12.66 5.00654C12.835 5.18157 12.9334 5.41897 12.9334 5.6665V13.6665C12.9334 13.914 12.835 14.1514 12.66 14.3265C12.485 14.5015 12.2476 14.5998 12 14.5998C11.7525 14.5998 11.5151 14.5015 11.3401 14.3265C11.165 14.1514 11.0667 13.914 11.0667 13.6665V5.6665ZM12 18.8998C11.7627 18.8998 11.5307 18.8295 11.3334 18.6976C11.136 18.5657 10.9822 18.3783 10.8914 18.1591C10.8006 17.9398 10.7768 17.6985 10.8231 17.4657C10.8694 17.233 10.9837 17.0191 11.1515 16.8513C11.3193 16.6835 11.5332 16.5692 11.7659 16.5229C11.9987 16.4766 12.24 16.5004 12.4593 16.5912C12.6785 16.682 12.866 16.8358 12.9978 17.0332C13.1297 17.2305 13.2 17.4625 13.2 17.6998C13.2 17.8574 13.169 18.0135 13.1087 18.1591C13.0484 18.3046 12.96 18.4369 12.8486 18.5484C12.7371 18.6598 12.6049 18.7482 12.4593 18.8085C12.3137 18.8688 12.1576 18.8998 12 18.8998Z" fill="#CBCBCB"/>
</svg> -->


<!-- <svg xmlns="http://www.w3.org/2000/svg" viewBox="0 0 24 24" fill="yellow" width="50" height="50">
  <path fill-rule="evenodd" d="M9.401 3.003c1.155-2 4.043-2 5.197 0l7.355 12.748c1.154 2-.29 4.5-2.599 4.5H4.645c-2.309 0-3.752-2.5-2.598-4.5L9.4 3.003ZM12 8.25a.75.75 0 0 1 .75.75v3.75a.75.75 0 0 1-1.5 0V9a.75.75 0 0 1 .75-.75Zm0 8.25a.75.75 0 1 0 0-1.5.75.75 0 0 0 0 1.5Z" clip-rule="evenodd" />
</svg> -->


<svg xmlns="http://www.w3.org/2000/svg" fill="yellow" viewBox="0 0 24 24" stroke-width="1.5" stroke="black" classNames="size-1" width="50" height="50">
  <path stroke-linecap="round" stroke-linejoin="round" d="M12 9v3.75m-9.303 3.376c-.866 1.5.217 3.374 1.948 3.374h14.71c1.73 0 2.813-1.874 1.948-3.374L13.949 3.378c-.866-1.5-3.032-1.5-3.898 0L2.697 16.126ZM12 15.75h.007v.008H12v-.008Z" />
</svg>
