<svg width="32" height="33" viewBox="0 0 32 33" fill="none" xmlns="http://www.w3.org/2000/svg">
<path fill-rule="evenodd" clip-rule="evenodd" d="M9.95331 2.31261C11.5173 2.24061 12.016 2.22461 16 2.22461C19.984 2.22461 20.4826 2.24194 22.0453 2.31261C23.608 2.38328 24.6746 2.63261 25.608 2.99394C26.5853 3.36328 27.472 3.94061 28.2053 4.68728C28.952 5.41928 29.528 6.30461 29.896 7.28328C30.2586 8.21661 30.5066 9.28328 30.5786 10.8433C30.6506 12.4099 30.6666 12.9086 30.6666 16.8913C30.6666 20.8753 30.6493 21.3739 30.5786 22.9379C30.508 24.4979 30.2586 25.5646 29.896 26.4979C29.528 27.4767 28.951 28.3635 28.2053 29.0966C27.472 29.8433 26.5853 30.4193 25.608 30.7873C24.6746 31.1499 23.608 31.3979 22.048 31.4699C20.4826 31.5419 19.984 31.5579 16 31.5579C12.016 31.5579 11.5173 31.5406 9.95331 31.4699C8.39331 31.3993 7.32665 31.1499 6.39331 30.7873C5.41454 30.4192 4.52774 29.8423 3.79465 29.0966C3.04849 28.3642 2.47107 27.4778 2.10265 26.4993C1.74131 25.5659 1.49331 24.4993 1.42131 22.9393C1.34931 21.3726 1.33331 20.8739 1.33331 16.8913C1.33331 12.9073 1.35065 12.4086 1.42131 10.8459C1.49198 9.28328 1.74131 8.21661 2.10265 7.28328C2.47161 6.30472 3.04947 5.41836 3.79598 4.68594C4.52803 3.93994 5.41394 3.36253 6.39198 2.99394C7.32531 2.63261 8.39198 2.38461 9.95198 2.31261H9.95331ZM21.9266 4.95261C20.38 4.88194 19.916 4.86728 16 4.86728C12.084 4.86728 11.62 4.88194 10.0733 4.95261C8.64265 5.01794 7.86665 5.25661 7.34931 5.45794C6.66531 5.72461 6.17598 6.04061 5.66265 6.55394C5.17604 7.02734 4.80155 7.60365 4.56665 8.24061C4.36531 8.75794 4.12665 9.53394 4.06131 10.9646C3.99065 12.5113 3.97598 12.9753 3.97598 16.8913C3.97598 20.8073 3.99065 21.2713 4.06131 22.8179C4.12665 24.2486 4.36531 25.0246 4.56665 25.5419C4.80131 26.1779 5.17598 26.7553 5.66265 27.2286C6.13598 27.7153 6.71331 28.0899 7.34931 28.3246C7.86665 28.5259 8.64265 28.7646 10.0733 28.8299C11.62 28.9006 12.0826 28.9153 16 28.9153C19.9173 28.9153 20.38 28.9006 21.9266 28.8299C23.3573 28.7646 24.1333 28.5259 24.6506 28.3246C25.3346 28.0579 25.824 27.7419 26.3373 27.2286C26.824 26.7553 27.1986 26.1779 27.4333 25.5419C27.6346 25.0246 27.8733 24.2486 27.9386 22.8179C28.0093 21.2713 28.024 20.8073 28.024 16.8913C28.024 12.9753 28.0093 12.5113 27.9386 10.9646C27.8733 9.53394 27.6346 8.75794 27.4333 8.24061C27.1666 7.55661 26.8506 7.06728 26.3373 6.55394C25.8639 6.06737 25.2876 5.69289 24.6506 5.45794C24.1333 5.25661 23.3573 5.01794 21.9266 4.95261ZM14.1266 21.4126C15.1729 21.8481 16.3378 21.9069 17.4226 21.5789C18.5073 21.2509 19.4445 20.5565 20.0741 19.6143C20.7037 18.672 20.9867 17.5404 20.8747 16.4127C20.7627 15.2851 20.2627 14.2312 19.46 13.4313C18.9483 12.9199 18.3296 12.5284 17.6484 12.2848C16.9672 12.0413 16.2406 11.9518 15.5206 12.0228C14.8007 12.0938 14.1055 12.3235 13.4851 12.6954C12.8646 13.0674 12.3343 13.5723 11.9324 14.1737C11.5305 14.7752 11.2669 15.4583 11.1607 16.1739C11.0544 16.8895 11.1082 17.6197 11.318 18.312C11.5279 19.0043 11.8886 19.6414 12.3743 20.1776C12.8599 20.7137 13.4584 21.1355 14.1266 21.4126ZM10.6693 11.5606C11.3693 10.8606 12.2004 10.3053 13.115 9.92642C14.0297 9.54757 15.01 9.35257 16 9.35257C16.99 9.35257 17.9703 9.54757 18.8849 9.92642C19.7996 10.3053 20.6306 10.8606 21.3306 11.5606C22.0307 12.2606 22.586 13.0917 22.9648 14.0063C23.3437 14.921 23.5387 15.9013 23.5387 16.8913C23.5387 17.8813 23.3437 18.8616 22.9648 19.7762C22.586 20.6908 22.0307 21.5219 21.3306 22.2219C19.9169 23.6357 17.9994 24.43 16 24.43C14.0006 24.43 12.0831 23.6357 10.6693 22.2219C9.25553 20.8082 8.46128 18.8907 8.46128 16.8913C8.46128 14.8919 9.25553 12.9744 10.6693 11.5606ZM25.2106 10.4753C25.3841 10.3116 25.523 10.1149 25.6191 9.89657C25.7151 9.6783 25.7664 9.44297 25.7699 9.20452C25.7733 8.96606 25.7289 8.72934 25.6393 8.50836C25.5496 8.28737 25.4166 8.08662 25.2479 7.91799C25.0793 7.74937 24.8785 7.61629 24.6576 7.52663C24.4366 7.43698 24.1999 7.39258 23.9614 7.39605C23.723 7.39953 23.4876 7.45081 23.2693 7.54687C23.0511 7.64293 22.8543 7.7818 22.6906 7.95528C22.3724 8.29265 22.1982 8.74077 22.2049 9.20452C22.2117 9.66826 22.3989 10.1111 22.7269 10.4391C23.0548 10.767 23.4977 10.9542 23.9614 10.961C24.4251 10.9678 24.8733 10.7935 25.2106 10.4753Z" fill="#1C9236"/>
</svg>
